<mxfile host="app.diagrams.net" modified="2021-08-08T02:15:04.362Z" agent="5.0 (Windows NT 10.0; Win64; x64) AppleWebKit/537.36 (KHTML, like Gecko) Chrome/91.0.4472.77 Safari/537.36" etag="YnMT1YxXyf0HTQUjmC_Y" version="14.9.4" type="github">
  <diagram id="tvSWAv2rjN2gD1KwTATf" name="Page-1">
    <mxGraphModel dx="1038" dy="547" grid="1" gridSize="10" guides="1" tooltips="1" connect="1" arrows="1" fold="1" page="1" pageScale="1" pageWidth="827" pageHeight="1169" math="0" shadow="0">
      <root>
        <mxCell id="0" />
        <mxCell id="1" parent="0" />
        <mxCell id="yVtn9EEY_QMr2Gz2V4pB-1" value="" style="rounded=1;whiteSpace=wrap;html=1;fillColor=#e1d5e7;strokeColor=#9673a6;" vertex="1" parent="1">
          <mxGeometry x="50" y="110" width="120" height="60" as="geometry" />
        </mxCell>
        <mxCell id="yVtn9EEY_QMr2Gz2V4pB-2" value="&lt;font style=&quot;font-size: 18px&quot;&gt;&lt;b&gt;客户需求&lt;/b&gt;&lt;/font&gt;" style="text;html=1;strokeColor=none;fillColor=none;align=center;verticalAlign=middle;whiteSpace=wrap;rounded=0;" vertex="1" parent="1">
          <mxGeometry x="65" y="130" width="90" height="20" as="geometry" />
        </mxCell>
        <mxCell id="yVtn9EEY_QMr2Gz2V4pB-3" value="" style="rounded=1;whiteSpace=wrap;html=1;fillColor=#e1d5e7;strokeColor=#9673a6;" vertex="1" parent="1">
          <mxGeometry x="90" y="210" width="120" height="60" as="geometry" />
        </mxCell>
        <mxCell id="yVtn9EEY_QMr2Gz2V4pB-4" value="" style="rounded=1;whiteSpace=wrap;html=1;fillColor=#e1d5e7;strokeColor=#9673a6;" vertex="1" parent="1">
          <mxGeometry x="140" y="310" width="120" height="60" as="geometry" />
        </mxCell>
        <mxCell id="yVtn9EEY_QMr2Gz2V4pB-5" value="" style="rounded=1;whiteSpace=wrap;html=1;fillColor=#e1d5e7;strokeColor=#9673a6;" vertex="1" parent="1">
          <mxGeometry x="210" y="410" width="120" height="60" as="geometry" />
        </mxCell>
        <mxCell id="yVtn9EEY_QMr2Gz2V4pB-6" value="" style="rounded=1;whiteSpace=wrap;html=1;fillColor=#e1d5e7;strokeColor=#9673a6;" vertex="1" parent="1">
          <mxGeometry x="310" y="500" width="120" height="60" as="geometry" />
        </mxCell>
        <mxCell id="yVtn9EEY_QMr2Gz2V4pB-7" value="" style="rounded=1;whiteSpace=wrap;html=1;fillColor=#e1d5e7;strokeColor=#9673a6;" vertex="1" parent="1">
          <mxGeometry x="450" y="410" width="120" height="60" as="geometry" />
        </mxCell>
        <mxCell id="yVtn9EEY_QMr2Gz2V4pB-8" value="" style="rounded=1;whiteSpace=wrap;html=1;fillColor=#e1d5e7;strokeColor=#9673a6;" vertex="1" parent="1">
          <mxGeometry x="520" y="300" width="120" height="60" as="geometry" />
        </mxCell>
        <mxCell id="yVtn9EEY_QMr2Gz2V4pB-9" value="" style="rounded=1;whiteSpace=wrap;html=1;fillColor=#e1d5e7;strokeColor=#9673a6;" vertex="1" parent="1">
          <mxGeometry x="570" y="210" width="120" height="60" as="geometry" />
        </mxCell>
        <mxCell id="yVtn9EEY_QMr2Gz2V4pB-10" value="" style="rounded=1;whiteSpace=wrap;html=1;fillColor=#e1d5e7;strokeColor=#9673a6;" vertex="1" parent="1">
          <mxGeometry x="600" y="110" width="120" height="60" as="geometry" />
        </mxCell>
        <mxCell id="yVtn9EEY_QMr2Gz2V4pB-11" value="&lt;font style=&quot;font-size: 18px&quot;&gt;&lt;b&gt;需求分析&lt;/b&gt;&lt;/font&gt;" style="text;html=1;strokeColor=none;fillColor=none;align=center;verticalAlign=middle;whiteSpace=wrap;rounded=0;" vertex="1" parent="1">
          <mxGeometry x="105" y="230" width="90" height="20" as="geometry" />
        </mxCell>
        <mxCell id="yVtn9EEY_QMr2Gz2V4pB-12" value="&lt;font style=&quot;font-size: 18px&quot;&gt;&lt;b&gt;概要设计&lt;/b&gt;&lt;/font&gt;" style="text;html=1;strokeColor=none;fillColor=none;align=center;verticalAlign=middle;whiteSpace=wrap;rounded=0;" vertex="1" parent="1">
          <mxGeometry x="155" y="330" width="90" height="20" as="geometry" />
        </mxCell>
        <mxCell id="yVtn9EEY_QMr2Gz2V4pB-13" value="&lt;font style=&quot;font-size: 18px&quot;&gt;&lt;b&gt;详细设计&lt;/b&gt;&lt;/font&gt;" style="text;html=1;strokeColor=none;fillColor=none;align=center;verticalAlign=middle;whiteSpace=wrap;rounded=0;" vertex="1" parent="1">
          <mxGeometry x="220" y="430" width="90" height="20" as="geometry" />
        </mxCell>
        <mxCell id="yVtn9EEY_QMr2Gz2V4pB-14" value="&lt;font style=&quot;font-size: 18px&quot;&gt;&lt;b&gt;产品编码&lt;/b&gt;&lt;/font&gt;" style="text;html=1;strokeColor=none;fillColor=none;align=center;verticalAlign=middle;whiteSpace=wrap;rounded=0;" vertex="1" parent="1">
          <mxGeometry x="325" y="520" width="90" height="20" as="geometry" />
        </mxCell>
        <mxCell id="yVtn9EEY_QMr2Gz2V4pB-15" value="&lt;font style=&quot;font-size: 18px&quot;&gt;&lt;b&gt;单元测试&lt;/b&gt;&lt;/font&gt;" style="text;html=1;strokeColor=none;fillColor=none;align=center;verticalAlign=middle;whiteSpace=wrap;rounded=0;" vertex="1" parent="1">
          <mxGeometry x="485" y="430" width="90" height="20" as="geometry" />
        </mxCell>
        <mxCell id="yVtn9EEY_QMr2Gz2V4pB-16" value="&lt;font style=&quot;font-size: 18px&quot;&gt;&lt;b&gt;集成测试&lt;/b&gt;&lt;/font&gt;" style="text;html=1;strokeColor=none;fillColor=none;align=center;verticalAlign=middle;whiteSpace=wrap;rounded=0;" vertex="1" parent="1">
          <mxGeometry x="535" y="320" width="90" height="20" as="geometry" />
        </mxCell>
        <mxCell id="yVtn9EEY_QMr2Gz2V4pB-17" value="&lt;font style=&quot;font-size: 18px&quot;&gt;&lt;b&gt;系统测试&lt;/b&gt;&lt;/font&gt;" style="text;html=1;strokeColor=none;fillColor=none;align=center;verticalAlign=middle;whiteSpace=wrap;rounded=0;" vertex="1" parent="1">
          <mxGeometry x="590" y="230" width="90" height="20" as="geometry" />
        </mxCell>
        <mxCell id="yVtn9EEY_QMr2Gz2V4pB-18" value="&lt;font style=&quot;font-size: 18px&quot;&gt;&lt;b&gt;验收测试&lt;/b&gt;&lt;/font&gt;" style="text;html=1;strokeColor=none;fillColor=none;align=center;verticalAlign=middle;whiteSpace=wrap;rounded=0;" vertex="1" parent="1">
          <mxGeometry x="615" y="130" width="90" height="20" as="geometry" />
        </mxCell>
        <mxCell id="yVtn9EEY_QMr2Gz2V4pB-19" value="" style="endArrow=classic;html=1;exitX=0.5;exitY=1;exitDx=0;exitDy=0;entryX=0.433;entryY=-0.05;entryDx=0;entryDy=0;entryPerimeter=0;" edge="1" parent="1" source="yVtn9EEY_QMr2Gz2V4pB-1" target="yVtn9EEY_QMr2Gz2V4pB-3">
          <mxGeometry width="50" height="50" relative="1" as="geometry">
            <mxPoint x="390" y="380" as="sourcePoint" />
            <mxPoint x="440" y="330" as="targetPoint" />
          </mxGeometry>
        </mxCell>
        <mxCell id="yVtn9EEY_QMr2Gz2V4pB-21" value="" style="endArrow=classic;html=1;exitX=0.5;exitY=1;exitDx=0;exitDy=0;entryX=0.5;entryY=0;entryDx=0;entryDy=0;" edge="1" parent="1" source="yVtn9EEY_QMr2Gz2V4pB-3" target="yVtn9EEY_QMr2Gz2V4pB-4">
          <mxGeometry width="50" height="50" relative="1" as="geometry">
            <mxPoint x="390" y="380" as="sourcePoint" />
            <mxPoint x="440" y="330" as="targetPoint" />
          </mxGeometry>
        </mxCell>
        <mxCell id="yVtn9EEY_QMr2Gz2V4pB-22" value="" style="endArrow=classic;html=1;exitX=0.5;exitY=1;exitDx=0;exitDy=0;entryX=0.38;entryY=-0.037;entryDx=0;entryDy=0;entryPerimeter=0;" edge="1" parent="1" source="yVtn9EEY_QMr2Gz2V4pB-4" target="yVtn9EEY_QMr2Gz2V4pB-5">
          <mxGeometry width="50" height="50" relative="1" as="geometry">
            <mxPoint x="230" y="380" as="sourcePoint" />
            <mxPoint x="261.96000000000004" y="417" as="targetPoint" />
          </mxGeometry>
        </mxCell>
        <mxCell id="yVtn9EEY_QMr2Gz2V4pB-23" value="" style="endArrow=classic;html=1;exitX=0.68;exitY=1.097;exitDx=0;exitDy=0;exitPerimeter=0;entryX=0.25;entryY=0;entryDx=0;entryDy=0;" edge="1" parent="1" source="yVtn9EEY_QMr2Gz2V4pB-5" target="yVtn9EEY_QMr2Gz2V4pB-6">
          <mxGeometry width="50" height="50" relative="1" as="geometry">
            <mxPoint x="320" y="480" as="sourcePoint" />
            <mxPoint x="370" y="500" as="targetPoint" />
          </mxGeometry>
        </mxCell>
        <mxCell id="yVtn9EEY_QMr2Gz2V4pB-24" value="" style="endArrow=classic;html=1;" edge="1" parent="1">
          <mxGeometry width="50" height="50" relative="1" as="geometry">
            <mxPoint x="410" y="498" as="sourcePoint" />
            <mxPoint x="480" y="473" as="targetPoint" />
          </mxGeometry>
        </mxCell>
        <mxCell id="yVtn9EEY_QMr2Gz2V4pB-25" value="" style="endArrow=classic;html=1;exitX=0.75;exitY=0;exitDx=0;exitDy=0;entryX=0.5;entryY=1;entryDx=0;entryDy=0;" edge="1" parent="1" source="yVtn9EEY_QMr2Gz2V4pB-7" target="yVtn9EEY_QMr2Gz2V4pB-8">
          <mxGeometry width="50" height="50" relative="1" as="geometry">
            <mxPoint x="520" y="380" as="sourcePoint" />
            <mxPoint x="551.96" y="417" as="targetPoint" />
          </mxGeometry>
        </mxCell>
        <mxCell id="yVtn9EEY_QMr2Gz2V4pB-26" value="" style="endArrow=classic;html=1;exitX=0.5;exitY=0;exitDx=0;exitDy=0;entryX=0.427;entryY=1.07;entryDx=0;entryDy=0;entryPerimeter=0;" edge="1" parent="1" source="yVtn9EEY_QMr2Gz2V4pB-8" target="yVtn9EEY_QMr2Gz2V4pB-9">
          <mxGeometry width="50" height="50" relative="1" as="geometry">
            <mxPoint x="560" y="290" as="sourcePoint" />
            <mxPoint x="591.96" y="327" as="targetPoint" />
          </mxGeometry>
        </mxCell>
        <mxCell id="yVtn9EEY_QMr2Gz2V4pB-27" value="" style="endArrow=classic;html=1;exitX=0.5;exitY=0;exitDx=0;exitDy=0;entryX=0.5;entryY=1;entryDx=0;entryDy=0;" edge="1" parent="1" source="yVtn9EEY_QMr2Gz2V4pB-9" target="yVtn9EEY_QMr2Gz2V4pB-10">
          <mxGeometry width="50" height="50" relative="1" as="geometry">
            <mxPoint x="620" y="190" as="sourcePoint" />
            <mxPoint x="651.96" y="227" as="targetPoint" />
          </mxGeometry>
        </mxCell>
      </root>
    </mxGraphModel>
  </diagram>
</mxfile>
